<svg width="215" height="40" viewBox="0 0 215 40" fill="none" xmlns="http://www.w3.org/2000/svg">
<path d="M2.26398 1.06224H3.5531C3.6493 1.21628 3.71985 1.32967 3.76047 1.39814C4.14742 2.07208 4.44672 2.51497 4.65409 2.72464C4.83367 2.76529 5.78287 2.78669 7.49956 2.78669C8.56634 2.78669 9.51555 2.78241 10.345 2.77171L10.7598 2.72464L13.2739 2.70324L17.9686 2.72464H24.3885L25.6135 2.55562C25.7931 2.42938 25.9876 2.09348 26.195 1.54576C26.2506 1.41953 26.3254 1.24409 26.4238 1.01944L27.3388 0.998047C27.4777 0.998047 27.6851 1.00447 27.963 1.01944C27.9758 1.97581 27.9844 3.41784 27.9844 5.34555L28.0058 7.19623L27.9844 8.25743C27.9844 8.61901 27.9566 8.92924 27.901 9.1924C27.3323 9.37212 26.8342 9.48338 26.4045 9.52617C26.0432 8.98487 25.652 8.2018 25.2287 7.17698C24.8054 6.15215 24.5382 5.58303 24.427 5.47178C24.2603 5.29206 24.0657 5.17439 23.8434 5.11876C23.5099 5.0503 22.0369 5.01392 19.4287 5.01392C19.0396 5.01392 18.5544 5.04174 17.9707 5.09736C17.9023 5.63866 17.866 6.08154 17.866 6.42814L17.8873 9.21379V15.3264L17.9493 21.9183L17.928 24.6205C17.928 25.5768 18.0113 26.2978 18.1781 26.7835C18.4004 26.8798 18.8109 26.9718 19.4095 27.0531C19.5207 27.0681 20.0359 27.1772 20.9552 27.3847C21.372 27.481 21.7419 27.5923 22.0626 27.7185C22.131 28.217 22.1673 28.5229 22.1673 28.6342C22.1673 28.7583 22.1459 28.9401 22.1053 29.1755C21.7996 29.1905 21.5516 29.1969 21.3571 29.1969C19.9311 29.1969 18.719 29.1455 17.7206 29.0407C16.7222 28.9359 14.9157 28.8845 12.299 28.8845C11.8843 28.8845 10.6636 28.968 8.64117 29.1348C7.8523 29.1905 7.33922 29.2183 7.10406 29.2183C7.08909 29.0108 7.07627 28.8503 7.06344 28.739L7.04206 28.2598V28.0929C7.34563 27.6907 7.92071 27.3933 8.7673 27.1986C10.2082 26.852 11.2044 26.5396 11.7603 26.2636C11.8992 26.0005 11.9826 25.6539 12.0104 25.2238C12.1066 23.5593 12.1558 20.9127 12.1558 17.2798L12.051 9.41919C12.051 7.25614 12.0104 5.94675 11.927 5.48889C11.8992 5.3648 11.8501 5.27066 11.7817 5.20862C11.7111 5.14657 11.6149 5.10806 11.4909 5.09522C11.0612 5.03959 9.66306 5.01178 7.29432 5.01178C5.99238 5.01178 5.12014 5.13588 4.67547 5.3862C4.07901 5.7328 3.18539 6.67633 1.99461 8.21464C1.64828 8.65752 1.39174 8.88003 1.22499 8.88003C0.587907 8.54627 0.179579 8.27669 0 8.06916C0.429707 7.16842 1.02403 5.36694 1.78724 2.66259C2.00957 1.87311 2.16777 1.33823 2.26612 1.06224H2.26398Z" fill="#053551"/>
<path d="M27.9831 28.435C28.1627 28.2767 28.3978 28.1633 28.6886 28.0906C29.3941 27.9387 30.0675 27.6627 30.7046 27.2604C30.8286 26.9288 30.8905 25.8077 30.8905 23.8971C30.8905 20.3969 30.8136 18.0284 30.6618 16.7982C30.634 16.5778 30.5228 16.3831 30.3304 16.2162C29.9841 16.0365 29.5138 15.8761 28.9173 15.7391C28.6394 15.6707 28.4748 15.5188 28.4192 15.2813L28.3572 14.5111C29.3812 14.372 30.3112 14.0232 31.1407 13.4605C31.9723 12.9 32.5944 12.3266 33.0113 11.7446C33.2336 11.4259 33.426 11.1841 33.5928 11.0172L35.0465 10.9766C35.1149 11.2954 35.1513 11.5585 35.1513 11.766C35.1513 11.918 35.1449 12.1062 35.1299 12.3266C35.1149 12.8123 35.1085 13.2145 35.1085 13.5333C35.1085 13.6852 35.1149 14.2607 35.1299 15.2599C35.6986 14.2907 36.1133 13.6381 36.3763 13.3044C36.5003 13.1525 36.868 12.8123 37.4773 12.2859C37.9476 11.9393 38.482 11.766 39.0764 11.766C39.8096 11.766 40.4467 12.0164 40.9876 12.5149C41.5285 13.0134 41.7978 13.5889 41.7978 14.2415C41.7978 14.894 41.5926 15.4781 41.1843 15.998C40.7759 16.5179 40.2308 16.7768 39.5531 16.7768C38.9566 16.7768 38.3345 16.5265 37.6825 16.028C37.2955 15.7241 36.9834 15.5701 36.7482 15.5701L36.6029 15.5915C36.3121 15.6878 36.0492 15.9509 35.814 16.3788C35.4271 17.0699 35.2325 17.7888 35.2325 18.5333L35.2731 19.0939C35.3287 20.1166 35.3693 22.5128 35.3971 26.2848C35.4377 26.6314 35.5703 26.9759 35.7926 27.3203C36.0428 27.515 36.295 27.652 36.5516 27.7354C36.8081 27.8188 37.2549 27.8873 37.892 27.9429C38.5291 27.9986 38.916 28.0863 39.055 28.2061C39.1939 28.3259 39.2623 28.5185 39.2623 28.7859C39.2623 28.94 39.2217 29.1432 39.1384 29.3978H37.1844L33.2165 29.2095C32.2182 29.2095 31.3117 29.2502 30.495 29.3336H30.1423C30.0461 29.3336 29.3256 29.3679 27.9809 29.4385C27.9403 29.2095 27.9189 29.0384 27.9189 28.9228C27.9189 28.8073 27.9403 28.6447 27.9809 28.4308L27.9831 28.435Z" fill="#053551"/>
<path d="M61.0069 25.6076L61.4858 25.92C61.6098 26.0163 61.6867 26.1339 61.7145 26.273L61.7359 26.3778C61.4045 27.6123 60.9663 28.4617 60.4275 28.926C59.8867 29.3903 59.2154 29.6235 58.4137 29.6235C57.612 29.6235 56.8937 29.3988 56.3058 28.9474C55.7179 28.4981 55.1813 27.7043 54.696 26.5661C54.0995 27.6188 53.2615 28.4125 52.1819 28.9474C51.1023 29.4823 49.7789 29.7476 48.2119 29.7476C46.771 29.7476 45.7106 29.4459 45.0329 28.8426C44.3531 28.2392 44.0153 27.4455 44.0153 26.4613C44.0153 26.0034 44.1158 25.5392 44.3167 25.0685C44.5177 24.5978 44.8427 24.1292 45.2937 23.6649C45.7427 23.2007 46.4674 22.6915 47.4658 22.1373C47.6176 22.0539 48.1435 21.8185 49.0457 21.4313L54.2192 19.3517C54.2599 18.8253 54.2812 18.2905 54.2812 17.7513C54.2812 15.8792 54.0525 14.6041 53.595 13.9258C53.3171 13.5108 52.8339 13.3011 52.1413 13.3011C51.4486 13.3011 50.8115 13.4338 50.23 13.6969C49.6485 13.9601 49.2252 14.3003 48.9623 14.7153C48.7677 15.0213 48.601 15.5968 48.4642 16.4419C48.368 17.0517 48.2782 17.4047 48.1948 17.5031C47.9874 17.7663 47.609 18.0059 47.0617 18.2199C46.5144 18.436 46.1446 18.59 45.9501 18.6884C45.2018 19.05 44.6054 19.2297 44.1628 19.2297C43.9683 19.0628 43.8721 18.8275 43.8721 18.5237C43.8721 17.7342 44.0388 17.0538 44.3702 16.4868C44.8683 15.6824 45.6208 14.9036 46.6256 14.1484C47.6304 13.3931 48.5689 12.8625 49.4412 12.5566C50.6319 12.1693 52.0878 11.9746 53.8045 11.9746C54.9119 11.9746 55.8654 12.18 56.6607 12.5886C57.4581 12.9973 58.0118 13.6049 58.3239 14.4072C58.636 15.2117 58.7921 16.6602 58.7921 18.7526L58.7493 22.1844L58.7921 24.7005V25.3445C58.7921 25.9264 58.8712 26.3244 59.0273 26.5405C59.1833 26.7565 59.3843 26.8635 59.6301 26.8635C59.7798 26.8635 59.9102 26.8229 60.0192 26.7394L60.6435 25.7617L61.0176 25.6162L61.0069 25.6076ZM54.1914 20.783C53.4026 21.0462 52.5111 21.4869 51.5213 22.1031C50.5315 22.7193 49.8409 23.3397 49.454 23.9645C49.1761 24.4223 49.0392 24.9829 49.0392 25.6483C49.0392 26.2452 49.2188 26.7373 49.5801 27.1245C49.9393 27.5118 50.3561 27.7065 50.8265 27.7065C51.6025 27.7065 52.261 27.484 52.7997 27.0411C53.533 26.4442 53.9627 25.9692 54.0888 25.6162C54.2128 25.2632 54.277 24.2619 54.277 22.6123C54.277 22.0025 54.2492 21.3928 54.1936 20.783H54.1914Z" fill="#053551"/>
<path d="M67.6851 13.7035C68.3628 13.2328 69.0191 12.8927 69.6477 12.6851C70.2783 12.4776 71.1677 12.3171 72.3178 12.2059H73.4808C74.9901 12.2059 76.4374 12.7258 77.8228 13.7656L77.8634 13.2671L77.842 11.8743L77.9254 9.64915C77.9254 7.30638 77.7458 5.82369 77.3845 5.19895C77.1771 4.82454 76.8137 4.62342 76.2942 4.59561C75.7747 4.56779 75.3557 4.47794 75.0372 4.32603V3.32687C75.3001 3.24343 75.64 3.1985 76.0548 3.19208C76.4695 3.18566 77.2798 3.04232 78.4855 2.76632L79.191 2.62084L81.2476 2.14158C81.6623 2.0453 81.9189 1.99609 82.0172 1.99609C82.0856 1.99609 82.1968 2.01107 82.3507 2.03675C82.4341 2.32772 82.4747 2.54381 82.4747 2.68074L82.4533 2.99311V3.36753C82.4533 3.75478 82.4747 4.78817 82.5153 6.46555V7.5888L82.5367 8.19214L82.5153 9.23194L82.5773 11.395L82.5367 12.6637C82.5089 13.2179 82.4961 14.0908 82.4961 15.2846C82.4961 15.4793 82.5025 15.6526 82.5175 15.8045V16.5748C82.5025 16.7973 82.4961 16.962 82.4961 17.0733C82.4961 17.2808 82.5175 17.5803 82.5581 17.9676V19.1122L82.5367 19.5487C82.5089 19.9509 82.4961 20.5051 82.4961 21.2132C82.4961 21.9214 82.5089 22.5847 82.5367 23.1688C82.5495 23.4041 82.5581 23.6202 82.5581 23.8128V25.3725C82.5581 25.871 82.5709 26.4679 82.5987 27.1611C82.8488 27.313 83.4581 27.4243 84.4266 27.4949C84.7301 27.5077 85.0016 27.5441 85.2368 27.5997C85.3052 27.8072 85.3416 27.9613 85.3416 28.0576C85.3416 28.1817 85.2924 28.3699 85.1962 28.6181C84.6275 28.7572 84.0332 28.8599 83.409 28.9305C81.5106 29.1658 80.1616 29.4996 79.3577 29.9296C78.9708 30.1521 78.6993 30.2613 78.5475 30.2613C78.3957 30.2613 78.2225 30.2463 78.028 30.2206C78.0408 29.9681 78.0494 29.8077 78.0494 29.7392C78.0494 28.7893 78.028 28.1817 77.9874 27.9164C77.78 28.0276 77.5235 28.1752 77.2178 28.3571C76.2899 28.9177 75.4455 29.3049 74.6823 29.521C73.9212 29.7371 73.0468 29.8462 72.0634 29.8462C70.3189 29.8462 68.9251 29.5124 67.8861 28.847C66.349 27.8757 65.2843 26.7118 64.6964 25.3532C64.1085 23.9946 63.8135 22.5034 63.8135 20.8816C63.8135 18.081 65.1026 15.6912 67.6787 13.7078L67.6851 13.7035ZM74.0837 27.4478C74.3744 27.4756 74.6246 27.4885 74.8319 27.4885C75.2894 27.4885 75.7769 27.3922 76.2963 27.2039C76.8158 27.0135 77.3674 26.7353 77.9489 26.3673C77.9617 25.9095 77.9703 25.6271 77.9703 25.5158C77.9703 21.1212 77.9083 18.4747 77.7843 17.5718C77.6175 16.3651 77.16 15.4366 76.4139 14.7861C75.6657 14.1357 74.7592 13.8084 73.6925 13.8084C73.0832 13.8084 72.5038 13.9196 71.9565 14.14C71.4092 14.3625 70.9624 14.6792 70.6161 15.0942C70.103 15.704 69.7161 16.395 69.4531 17.1696C69.0918 18.25 68.9122 19.2599 68.9122 20.2013C68.9122 22.4563 69.3911 24.185 70.3467 25.381C71.3023 26.5792 72.5487 27.2659 74.0858 27.4478H74.0837Z" fill="#053551"/>
<path d="M86.7749 29.1883C86.9138 29.0663 87.0314 28.9914 87.1276 28.9658C87.3628 28.8973 87.7647 28.8417 88.3333 28.7989C89.6759 28.7154 90.5075 28.5913 90.8261 28.4244C91.0206 28.1463 91.1168 27.7591 91.1168 27.2584L91.0954 25.8014L91.1168 20.5104L91.0762 18.0114L91.0976 12.7824L90.9928 6.84741C90.9779 5.43105 90.8881 4.63302 90.7235 4.45116C90.4733 4.188 89.7336 4.03395 88.5001 3.9933C87.9742 3.98046 87.5103 3.93767 87.1084 3.86921C86.9288 3.77293 86.839 3.6467 86.839 3.49479C86.839 3.38354 86.8732 3.25303 86.9437 3.09898C87.0677 3.03052 87.1789 2.99414 87.2751 2.99414C87.4697 2.99414 87.7048 3.00056 87.9806 3.01554C88.7973 3.09898 89.6417 3.13963 90.5161 3.13963L92.0532 3.09898L95.7111 3.18242C97.5389 3.18242 98.967 3.16103 99.991 3.12038C101.015 3.07973 101.708 3.05833 102.069 3.05833C102.388 3.05833 103.176 3.08614 104.438 3.14177L107.388 3.12038L107.741 3.18242L109.466 3.12038L109.673 3.22521C109.742 3.33647 109.791 3.45414 109.819 3.57823C109.819 3.77293 109.787 4.07032 109.725 4.47255C109.663 4.87478 109.631 5.1251 109.631 5.22138C109.631 6.66341 109.68 7.88294 109.776 8.8821C109.763 8.96554 109.722 9.02117 109.654 9.04898C109.504 9.04898 109.37 9.02758 109.246 8.98693C109.094 8.72377 108.889 8.25949 108.632 7.5941C108.376 6.92871 107.991 6.15849 107.478 5.28557C107.131 4.70362 106.86 4.35702 106.668 4.24576C106.473 4.13451 106.071 4.07888 105.462 4.07888C105.338 4.07888 104.705 4.06604 103.57 4.03823C103.264 4.02539 102.967 4.01684 102.676 4.01684L96.75 4.14093H96.2305C95.4673 4.14093 95.0098 4.2372 94.8581 4.4319C94.6229 4.76352 94.5053 5.74128 94.5053 7.36304C94.5053 7.52992 94.5395 9.19232 94.6101 12.3545V15.245C94.7618 15.2857 94.9286 15.3071 95.1082 15.3071H95.4609C95.6961 15.3071 96.0424 15.3135 96.4999 15.3285C97.2204 15.3563 97.7057 15.3691 97.9536 15.3691C98.1204 15.3691 98.2658 15.3627 98.3898 15.3477C99.8863 15.2921 101.81 15.2643 104.166 15.2643C104.9 15.1402 105.329 14.9947 105.455 14.8278C105.663 14.5775 105.819 13.9271 105.924 12.8723C106.028 11.8197 106.259 11.2227 106.62 11.0837C106.8 11.0837 106.967 11.1179 107.119 11.1885C107.146 11.2998 107.159 11.4046 107.159 11.5009C107.159 11.5971 107.144 11.7576 107.119 11.9801C107.05 12.4936 107.014 14.1004 107.014 16.8047C107.014 17.5257 107.052 18.3302 107.127 19.216C107.204 20.1039 107.24 20.581 107.24 20.6516C107.24 20.7757 107.219 20.9426 107.178 21.1501C107.067 21.2057 106.977 21.2335 106.909 21.2335H106.764C106.541 20.8463 106.328 20.2429 106.12 19.4235C105.759 18.0243 105.383 17.1471 104.987 16.794C104.592 16.441 103.952 16.2634 103.065 16.2634C102.871 16.2634 102.518 16.2741 102.005 16.2955C101.492 16.3169 100.731 16.3276 99.7195 16.3276H98.3684C96.4422 16.3276 95.183 16.3704 94.5865 16.4517L94.5652 17.1385L94.5865 20.9704L94.5652 23.3859L94.5865 25.7394C94.5994 27.1557 94.6913 27.9752 94.8559 28.1977C95.0911 28.5036 95.6042 28.6555 96.393 28.6555L97.6608 28.6341C97.7719 28.6341 98.2038 28.6448 98.9584 28.6662C99.7131 28.6876 100.645 28.6983 101.753 28.6983C104.425 28.6983 106.206 28.5828 107.093 28.3539C107.98 28.1249 108.709 27.7184 109.284 27.1322C109.859 26.5481 110.582 25.2901 111.456 23.3559C111.719 22.7847 111.982 22.5001 112.245 22.5001C112.369 22.5001 112.508 22.5558 112.66 22.667C112.258 24.0406 112.029 24.9413 111.974 25.3692C111.822 26.3406 111.732 27.3312 111.704 28.3432C111.704 28.801 111.593 29.1818 111.371 29.4857H110.913L105.075 29.5477L102.456 29.5263L96.222 29.6098H93.6865C93.368 29.6098 93.0708 29.6162 92.7929 29.6311C90.3002 29.7424 88.4638 29.798 87.2858 29.798C87.0784 29.798 86.9352 29.7638 86.8604 29.6975C86.7834 29.629 86.7471 29.5284 86.7471 29.3937L86.7685 29.1904L86.7749 29.1883Z" fill="#053551"/>
<path d="M113.734 28.8212C114.081 28.7249 114.482 28.6415 114.94 28.573C115.812 28.4489 116.336 28.3034 116.509 28.1365C116.682 27.9718 116.768 27.5909 116.768 26.9962L116.808 26.2495C116.821 25.9735 116.83 25.6205 116.83 25.1925L116.789 18.8296C116.789 17.9738 116.678 17.4197 116.456 17.1715C116.082 16.7842 115.389 16.5147 114.378 16.3628V15.6032C115.389 15.3251 116.165 14.9635 116.704 14.5185C117.493 13.8938 118.157 13.0444 118.698 11.9746L119.404 11.996C119.444 12.6507 119.466 13.115 119.466 13.3931V14.771L119.487 15.1475C119.654 15.0363 119.846 14.8972 120.069 14.7303C120.9 14.1056 121.751 13.5921 122.623 13.1963C123.496 12.8005 124.272 12.5245 124.952 12.3726C125.381 12.2613 125.867 12.2057 126.405 12.2057C127.54 12.2057 128.517 12.5116 129.334 13.1214C130.151 13.7312 130.681 14.45 130.923 15.2759C131.164 16.1017 131.286 17.7428 131.286 20.1989V23.3419C131.286 23.4253 131.275 23.7034 131.254 24.1741C131.233 24.647 131.222 25.1883 131.222 25.798C131.222 26.7694 131.262 27.3877 131.346 27.6509C131.414 27.8306 131.596 28.0124 131.887 28.1922C133.216 28.3719 133.992 28.588 134.215 28.8383V29.0052C134.215 29.1442 134.174 29.3175 134.091 29.5251H133.695L130.952 29.4823L128.252 29.5443C127.254 29.5721 126.335 29.5657 125.488 29.5229L125.364 29.0865C125.364 29.003 125.413 28.8918 125.509 28.7527C125.884 28.5858 126.41 28.4746 127.089 28.4189C127.491 28.3911 127.767 28.3505 127.921 28.2949C128.073 28.2392 128.261 28.128 128.481 27.9611C128.648 27.6273 128.731 27.3513 128.731 27.1288C128.731 27.0325 128.716 26.8378 128.691 26.5447C128.65 25.9072 128.62 24.3175 128.607 21.7757V20.6932L128.648 19.0265C128.648 17.2357 128.287 16.0012 127.568 15.3208C126.848 14.6404 125.886 14.3003 124.68 14.3003C123.752 14.3003 122.844 14.5057 121.959 14.9143C121.071 15.323 120.214 15.937 119.382 16.7543C119.355 17.4197 119.342 17.9888 119.342 18.4595L119.404 23.0552C119.404 25.4536 119.438 26.9234 119.509 27.4626C119.536 27.6851 119.586 27.837 119.654 27.9204C119.765 28.0317 119.985 28.1216 120.319 28.19C120.652 28.2606 121.035 28.3569 121.471 28.481C121.907 28.6051 122.194 28.6821 122.333 28.7099C122.608 28.7805 122.797 28.9175 122.893 29.125L122.871 29.5401H120.689L116.201 29.478C115.162 29.493 114.504 29.4994 114.228 29.4994H113.709L113.668 29.2298C113.668 29.1335 113.689 28.9945 113.73 28.8148L113.734 28.8212Z" fill="#053551"/>
<path d="M140.938 30.398C140.772 30.3146 140.239 30.0856 139.339 29.7112C138.287 29.033 137.62 28.5259 137.345 28.1943C137.067 27.8627 136.93 27.4947 136.93 27.0924C136.93 26.733 137.035 26.442 137.242 26.2195C137.546 25.9007 138.149 25.5948 139.051 25.3038C139.951 25.0128 140.693 24.7283 141.274 24.4501C141.094 24.3261 140.81 24.1463 140.423 23.9088C138.358 22.6337 137.328 20.8665 137.328 18.6071C137.328 16.75 137.982 15.1796 139.29 13.898C140.598 12.6165 142.279 11.9746 144.329 11.9746C145.257 11.9746 146.11 12.1073 146.884 12.3704C147.326 12.5095 147.985 12.8561 148.857 13.4102C149.411 13.7568 149.736 13.9515 149.834 13.9922C150.056 14.0628 150.304 14.097 150.582 14.097C150.817 14.097 151.388 14.0392 152.297 13.9194C153.203 13.8018 153.74 13.7419 153.907 13.7419C154.225 13.7419 154.488 13.8039 154.695 13.928C154.862 14.2061 154.946 14.6704 154.946 15.3208C154.946 15.5433 154.886 15.7081 154.768 15.8193C154.651 15.9306 154.48 15.9862 154.259 15.9862C153.87 15.9862 153.231 15.8643 152.337 15.6225C151.444 15.3807 150.901 15.2588 150.706 15.2588C150.638 15.2588 150.505 15.2737 150.311 15.2994C150.907 16.4911 151.204 17.5801 151.204 18.5643C151.204 19.5485 150.892 20.5669 150.27 21.6217C149.646 22.6743 148.789 23.4788 147.694 24.0329C146.599 24.5871 145.492 24.8652 144.37 24.8652C144.286 24.8652 144.051 24.8588 143.664 24.8438C142.39 24.8438 141.218 25.1626 140.154 25.8002C139.641 26.119 139.384 26.4164 139.384 26.6945C139.384 26.9855 139.634 27.27 140.132 27.546C141.447 28.2521 143.942 28.6629 147.613 28.772C149.205 28.8276 150.445 29.0565 151.333 29.4587C152.22 29.861 152.887 30.4536 153.338 31.2367C153.787 32.0198 154.013 32.8285 154.013 33.6586C154.013 34.7819 153.633 35.8217 152.872 36.778C152.111 37.7344 150.952 38.5111 149.402 39.1058C147.85 39.7028 146.071 40.0002 144.062 40.0002C141.845 40.0002 140.135 39.7306 138.929 39.1893C137.723 38.648 136.868 38.0596 136.363 37.422C135.857 36.7845 135.604 36.1533 135.604 35.5307C135.604 34.9894 135.88 34.3133 136.436 33.5024C136.99 32.6916 138.14 31.8422 139.884 30.9543C140.398 30.6911 140.75 30.5028 140.945 30.3937L140.938 30.398ZM139.423 37.7793C140.682 38.7485 142.277 39.2342 144.201 39.2342C145.571 39.2342 146.939 39.016 148.305 38.5795C149.669 38.1431 150.668 37.5183 151.298 36.7074C151.929 35.8966 152.243 35.1306 152.243 34.4096C152.243 33.9667 152.132 33.526 151.912 33.0895C151.69 32.6531 151.388 32.2915 151.008 32.009C150.627 31.7245 150.125 31.4998 149.5 31.333C149.058 31.2089 148.427 31.119 147.611 31.0634C145.283 30.8837 143.857 30.7938 143.331 30.7938C141.849 30.7938 140.526 31.2923 139.363 32.2915C138.463 33.0681 138.012 33.9967 138.012 35.0771C138.012 36.0763 138.482 36.977 139.425 37.7793H139.423ZM140.109 18.5237C140.109 19.771 140.297 20.8151 140.669 21.6538C141.043 22.4925 141.556 23.1172 142.206 23.5259C142.856 23.9345 143.515 24.1399 144.179 24.1399C145.385 24.1399 146.386 23.6799 147.181 22.7578C147.978 21.8356 148.376 20.4321 148.376 18.5472C148.376 16.6623 147.961 15.2031 147.13 14.2125C146.298 13.2219 145.293 12.7256 144.117 12.7256C142.8 12.7256 141.804 13.1963 141.124 14.1398C140.445 15.0833 140.107 16.5446 140.107 18.528L140.109 18.5237Z" fill="#053551"/>
<path d="M155.752 14.4716L155.774 13.8576C156.674 13.5944 157.159 13.4404 157.228 13.3976C157.726 13.1751 158.249 12.8349 158.797 12.3749C159.344 11.9149 159.804 11.4014 160.178 10.8302C160.345 10.8024 160.475 10.7895 160.573 10.7895L160.823 10.8109C160.879 11.4763 160.907 11.962 160.907 12.2658C160.907 12.3364 160.892 12.6466 160.866 13.2007V14.3026L160.888 20.2911L160.826 26.6326C160.811 27.1461 160.894 27.5034 161.076 27.7024C161.255 27.9035 161.79 28.1282 162.675 28.3785C163.228 28.5304 163.643 28.663 163.921 28.7743C163.964 28.8706 163.983 28.954 163.983 29.0246C163.983 29.1081 163.949 29.2108 163.878 29.337C163.338 29.322 162.645 29.2878 161.8 29.2322C160.65 29.1359 159.889 29.0867 159.515 29.0867C159.335 29.0867 158.226 29.1209 156.191 29.1915C155.776 29.2065 155.374 29.2407 154.985 29.2963C154.914 29.2963 154.805 29.275 154.654 29.2343C154.583 29.138 154.549 29.0546 154.549 28.984C154.549 28.7893 154.681 28.6374 154.944 28.5261C155 28.4983 155.705 28.34 157.063 28.049C157.505 27.9656 157.796 27.8286 157.935 27.6339C158.17 27.343 158.288 26.8787 158.288 26.2432C158.316 25.1778 158.329 22.2573 158.329 17.4819C158.329 16.5277 158.288 15.9308 158.205 15.6954C158.134 15.5307 157.952 15.3403 157.653 15.1242C157.356 14.9102 156.721 14.692 155.752 14.4695V14.4716ZM157.497 3.67989C157.497 3.22204 157.674 2.82837 158.027 2.49461C158.38 2.16298 158.805 1.99609 159.306 1.99609C159.806 1.99609 160.268 2.18437 160.657 2.55665C161.044 2.93106 161.238 3.33329 161.238 3.76334C161.238 4.19338 161.044 4.59775 160.657 4.98072C160.27 5.36156 159.819 5.55197 159.306 5.55197C158.792 5.55197 158.363 5.37867 158.016 5.03207C157.67 4.68547 157.497 4.23403 157.497 3.67989Z" fill="#053551"/>
<path d="M164.586 28.8212C164.932 28.7249 165.334 28.6415 165.792 28.573C166.664 28.4489 167.188 28.3034 167.361 28.1365C167.534 27.9718 167.619 27.5909 167.619 26.9962L167.66 26.2495C167.673 25.9735 167.681 25.6205 167.681 25.1925L167.641 18.8296C167.641 17.9738 167.53 17.4197 167.307 17.1715C166.933 16.7842 166.24 16.5147 165.229 16.3628V15.6032C166.24 15.3251 167.017 14.9635 167.555 14.5185C168.344 13.8938 169.009 13.0444 169.55 11.9746L170.255 11.996C170.296 12.6507 170.317 13.115 170.317 13.3931V14.771L170.339 15.1475C170.506 15.0363 170.698 14.8972 170.92 14.7303C171.752 14.1056 172.603 13.5921 173.475 13.1963C174.347 12.8005 175.123 12.5245 175.803 12.3726C176.233 12.2613 176.718 12.2057 177.257 12.2057C178.392 12.2057 179.369 12.5116 180.186 13.1214C181.002 13.7312 181.533 14.45 181.774 15.2759C182.016 16.1017 182.138 17.7428 182.138 20.1989V23.3419C182.138 23.4253 182.127 23.7034 182.105 24.1741C182.084 24.647 182.073 25.1883 182.073 25.798C182.073 26.7694 182.114 27.3877 182.197 27.6509C182.266 27.8306 182.448 28.0124 182.738 28.1922C184.068 28.3719 184.844 28.588 185.066 28.8383V29.0052C185.066 29.1442 185.026 29.3175 184.942 29.5251H184.547L181.804 29.4823L179.104 29.5443C178.106 29.5721 177.186 29.5657 176.34 29.5229L176.216 29.0865C176.216 29.003 176.265 28.8918 176.361 28.7527C176.735 28.5858 177.261 28.4746 177.941 28.4189C178.343 28.3911 178.619 28.3505 178.773 28.2949C178.924 28.2392 179.112 28.128 179.333 27.9611C179.499 27.6273 179.583 27.3513 179.583 27.1288C179.583 27.0325 179.568 26.8378 179.542 26.5447C179.502 25.9072 179.472 24.3175 179.459 21.7757V20.6932L179.499 19.0265C179.499 17.2357 179.138 16.0012 178.42 15.3208C177.699 14.6404 176.737 14.3003 175.532 14.3003C174.604 14.3003 173.695 14.5057 172.81 14.9143C171.923 15.323 171.066 15.937 170.234 16.7543C170.206 17.4197 170.193 17.9888 170.193 18.4595L170.255 23.0552C170.255 25.4536 170.29 26.9234 170.36 27.4626C170.388 27.6851 170.437 27.837 170.505 27.9204C170.617 28.0317 170.837 28.1216 171.17 28.19C171.504 28.2606 171.887 28.3569 172.323 28.481C172.759 28.6051 173.045 28.6821 173.184 28.7099C173.46 28.7805 173.648 28.9175 173.744 29.125L173.723 29.5401H171.54L167.053 29.478C166.014 29.493 165.355 29.4994 165.08 29.4994H164.56L164.52 29.2298C164.52 29.1335 164.541 28.9945 164.582 28.8148L164.586 28.8212Z" fill="#053551"/>
<path d="M202.294 18.0894L193.963 18.1493H192.383C191.746 18.1493 191.094 18.1771 190.429 18.2348C190.305 18.6499 190.243 18.9345 190.243 19.0864L190.264 19.2939V19.5014L190.243 20.5198C190.243 21.365 190.51 22.4026 191.043 23.6286C191.575 24.8545 192.338 25.7916 193.328 26.4356C194.318 27.0796 195.553 27.4241 197.037 27.4647C197.826 27.4241 198.457 27.3256 198.927 27.1737C199.397 27.0218 200.062 26.6688 200.922 26.1125L202.418 24.8866L202.542 25.7189C202.542 25.8151 202.536 25.92 202.521 26.0312C201.896 26.8207 201.108 27.5139 200.152 28.1108C199.196 28.7078 198.226 29.1442 197.242 29.4202C196.772 29.5443 195.996 29.6085 194.914 29.6085C193.931 29.6085 192.96 29.4074 192.005 29.0052C190.591 28.3954 189.48 27.4155 188.67 26.0633C187.859 24.7112 187.453 23.0723 187.453 21.1446C187.453 20.5348 187.566 19.7518 187.795 18.7954C188.024 17.839 188.437 16.8206 189.031 15.738C189.433 15.0042 189.924 14.4008 190.506 13.928C191.338 13.2626 192.064 12.7983 192.689 12.5352C193.589 12.1607 194.634 11.9746 195.827 11.9746C197.116 11.9746 198.168 12.21 198.985 12.6806C200.092 13.3054 200.919 14.1077 201.467 15.0919C202.014 16.0761 202.288 16.9768 202.288 17.7941V18.0851L202.294 18.0894ZM190.701 17.3405H191.678C192.383 17.3405 194.489 17.2293 197.993 17.0068C198.546 16.9789 198.886 16.9233 199.01 16.8399C199.26 16.5767 199.384 16.3414 199.384 16.1338C199.384 15.7038 199.245 15.216 198.97 14.6683C198.692 14.1205 198.266 13.6991 197.691 13.3995C197.116 13.1021 196.447 12.9524 195.686 12.9524C194.078 12.9524 192.791 13.5557 191.821 14.7624C191.073 15.6781 190.698 16.5361 190.698 17.3405H190.701Z" fill="#053551"/>
<path d="M203.406 0.727435V0C205.704 0.305951 207.584 1.23664 209.037 2.79634C210.491 4.35605 211.22 6.07837 211.22 7.96329C211.22 8.99025 211.064 10.1563 210.752 11.4678C210.44 12.7772 210.284 13.8277 210.284 14.6172C210.284 15.5736 210.701 16.485 211.534 17.3515C212.368 18.218 213.523 18.7486 215 18.9411V19.7927C213.525 19.9874 212.368 20.5137 211.534 21.3738C210.701 22.2339 210.284 23.156 210.284 24.1402C210.284 24.9168 210.44 25.9588 210.752 27.2703C211.064 28.5797 211.22 29.7479 211.22 30.7748C211.22 32.6469 210.495 34.3649 209.048 35.9311C207.601 37.4972 205.719 38.4407 203.406 38.7595V38.0321C205.027 37.6298 206.215 36.9923 206.97 36.1193C207.725 35.2464 208.103 34.2965 208.103 33.2716C208.103 32.4116 207.947 31.314 207.635 29.9768C207.323 28.6396 207.167 27.5056 207.167 26.5771C207.167 25.1629 207.682 23.7979 208.71 22.4799C209.739 21.162 211.267 20.1436 213.298 19.4225C211.31 18.6887 209.792 17.6489 208.742 16.3031C207.693 14.9595 207.169 13.5859 207.169 12.1867C207.169 11.2432 207.325 10.1049 207.637 8.7656C207.949 7.42841 208.105 6.32869 208.105 5.47074C208.105 4.45875 207.727 3.51309 206.972 2.6316C206.218 1.75226 205.029 1.11683 203.408 0.729576L203.406 0.727435Z" fill="#053551"/>
</svg>
